<mxfile host="app.diagrams.net" modified="2023-09-20T07:55:29.580Z" agent="Mozilla/5.0 (Windows NT 10.0; Win64; x64) AppleWebKit/537.36 (KHTML, like Gecko) Chrome/117.0.0.0 Safari/537.36 Edg/117.0.2045.36" etag="yY2sUiPatiiWCO2jNg_W" version="21.7.5" type="github">
  <diagram name="第 1 页" id="Yx1Tp-3RheTkns9B5Z6W">
    <mxGraphModel dx="1603" dy="2044" grid="1" gridSize="10" guides="1" tooltips="1" connect="1" arrows="1" fold="1" page="1" pageScale="1" pageWidth="827" pageHeight="1169" math="0" shadow="0">
      <root>
        <mxCell id="0" />
        <mxCell id="1" parent="0" />
        <mxCell id="YoOTowzyrClWi79sCNQv-5" value="" style="edgeStyle=orthogonalEdgeStyle;rounded=0;orthogonalLoop=1;jettySize=auto;html=1;" parent="1" source="YoOTowzyrClWi79sCNQv-1" target="YoOTowzyrClWi79sCNQv-3" edge="1">
          <mxGeometry relative="1" as="geometry" />
        </mxCell>
        <mxCell id="YoOTowzyrClWi79sCNQv-8" style="edgeStyle=orthogonalEdgeStyle;rounded=0;orthogonalLoop=1;jettySize=auto;html=1;entryX=0;entryY=0.5;entryDx=0;entryDy=0;" parent="1" source="YoOTowzyrClWi79sCNQv-1" target="YoOTowzyrClWi79sCNQv-2" edge="1">
          <mxGeometry relative="1" as="geometry" />
        </mxCell>
        <mxCell id="YoOTowzyrClWi79sCNQv-9" style="edgeStyle=orthogonalEdgeStyle;rounded=0;orthogonalLoop=1;jettySize=auto;html=1;entryX=0;entryY=0.5;entryDx=0;entryDy=0;" parent="1" source="YoOTowzyrClWi79sCNQv-1" target="YoOTowzyrClWi79sCNQv-4" edge="1">
          <mxGeometry relative="1" as="geometry" />
        </mxCell>
        <mxCell id="YoOTowzyrClWi79sCNQv-1" value="&lt;font style=&quot;font-size: 32px;&quot;&gt;回合制遊戲&lt;/font&gt;" style="rounded=1;whiteSpace=wrap;html=1;" parent="1" vertex="1">
          <mxGeometry x="90" y="390" width="300" height="130" as="geometry" />
        </mxCell>
        <mxCell id="YoOTowzyrClWi79sCNQv-16" style="edgeStyle=orthogonalEdgeStyle;rounded=0;orthogonalLoop=1;jettySize=auto;html=1;entryX=0;entryY=0.5;entryDx=0;entryDy=0;" parent="1" source="YoOTowzyrClWi79sCNQv-2" target="YoOTowzyrClWi79sCNQv-12" edge="1">
          <mxGeometry relative="1" as="geometry" />
        </mxCell>
        <mxCell id="YoOTowzyrClWi79sCNQv-17" style="edgeStyle=orthogonalEdgeStyle;rounded=0;orthogonalLoop=1;jettySize=auto;html=1;entryX=0;entryY=0.5;entryDx=0;entryDy=0;" parent="1" source="YoOTowzyrClWi79sCNQv-2" target="YoOTowzyrClWi79sCNQv-13" edge="1">
          <mxGeometry relative="1" as="geometry" />
        </mxCell>
        <mxCell id="YoOTowzyrClWi79sCNQv-18" style="edgeStyle=orthogonalEdgeStyle;rounded=0;orthogonalLoop=1;jettySize=auto;html=1;entryX=0;entryY=0.5;entryDx=0;entryDy=0;" parent="1" source="YoOTowzyrClWi79sCNQv-2" target="YoOTowzyrClWi79sCNQv-14" edge="1">
          <mxGeometry relative="1" as="geometry" />
        </mxCell>
        <mxCell id="YoOTowzyrClWi79sCNQv-19" style="edgeStyle=orthogonalEdgeStyle;rounded=0;orthogonalLoop=1;jettySize=auto;html=1;entryX=0;entryY=0.5;entryDx=0;entryDy=0;" parent="1" source="YoOTowzyrClWi79sCNQv-2" target="YoOTowzyrClWi79sCNQv-15" edge="1">
          <mxGeometry relative="1" as="geometry" />
        </mxCell>
        <mxCell id="YoOTowzyrClWi79sCNQv-2" value="&lt;font style=&quot;font-size: 24px;&quot;&gt;玩家行動&lt;/font&gt;" style="rounded=1;whiteSpace=wrap;html=1;" parent="1" vertex="1">
          <mxGeometry x="840" y="-170" width="240" height="90" as="geometry" />
        </mxCell>
        <mxCell id="YoOTowzyrClWi79sCNQv-3" value="&lt;font style=&quot;font-size: 24px;&quot;&gt;敵人行動&lt;/font&gt;" style="rounded=1;whiteSpace=wrap;html=1;" parent="1" vertex="1">
          <mxGeometry x="840" y="410" width="270" height="90" as="geometry" />
        </mxCell>
        <mxCell id="YoOTowzyrClWi79sCNQv-4" value="&lt;font style=&quot;font-size: 24px;&quot;&gt;系統時間&lt;/font&gt;" style="rounded=1;whiteSpace=wrap;html=1;" parent="1" vertex="1">
          <mxGeometry x="840" y="690" width="270" height="90" as="geometry" />
        </mxCell>
        <mxCell id="YoOTowzyrClWi79sCNQv-23" style="edgeStyle=orthogonalEdgeStyle;rounded=0;orthogonalLoop=1;jettySize=auto;html=1;entryX=0;entryY=0.5;entryDx=0;entryDy=0;" parent="1" source="YoOTowzyrClWi79sCNQv-12" target="YoOTowzyrClWi79sCNQv-20" edge="1">
          <mxGeometry relative="1" as="geometry" />
        </mxCell>
        <mxCell id="YoOTowzyrClWi79sCNQv-24" style="edgeStyle=orthogonalEdgeStyle;rounded=0;orthogonalLoop=1;jettySize=auto;html=1;entryX=0;entryY=0.5;entryDx=0;entryDy=0;" parent="1" source="YoOTowzyrClWi79sCNQv-12" target="YoOTowzyrClWi79sCNQv-22" edge="1">
          <mxGeometry relative="1" as="geometry" />
        </mxCell>
        <mxCell id="YoOTowzyrClWi79sCNQv-12" value="選擇角色" style="rounded=0;whiteSpace=wrap;html=1;" parent="1" vertex="1">
          <mxGeometry x="1220" y="-342.5" width="120" height="60" as="geometry" />
        </mxCell>
        <mxCell id="KjRn88IFFN9hU_ZQH7HQ-3" style="edgeStyle=orthogonalEdgeStyle;rounded=0;orthogonalLoop=1;jettySize=auto;html=1;entryX=0;entryY=0.5;entryDx=0;entryDy=0;" edge="1" parent="1" source="YoOTowzyrClWi79sCNQv-13" target="KjRn88IFFN9hU_ZQH7HQ-2">
          <mxGeometry relative="1" as="geometry" />
        </mxCell>
        <mxCell id="KjRn88IFFN9hU_ZQH7HQ-6" style="edgeStyle=orthogonalEdgeStyle;rounded=0;orthogonalLoop=1;jettySize=auto;html=1;entryX=0;entryY=0.5;entryDx=0;entryDy=0;" edge="1" parent="1" source="YoOTowzyrClWi79sCNQv-13" target="KjRn88IFFN9hU_ZQH7HQ-5">
          <mxGeometry relative="1" as="geometry" />
        </mxCell>
        <mxCell id="KjRn88IFFN9hU_ZQH7HQ-21" style="edgeStyle=orthogonalEdgeStyle;rounded=0;orthogonalLoop=1;jettySize=auto;html=1;entryX=0;entryY=0.5;entryDx=0;entryDy=0;" edge="1" parent="1" source="YoOTowzyrClWi79sCNQv-13" target="KjRn88IFFN9hU_ZQH7HQ-5">
          <mxGeometry relative="1" as="geometry" />
        </mxCell>
        <mxCell id="YoOTowzyrClWi79sCNQv-13" value="使用道具" style="rounded=0;whiteSpace=wrap;html=1;" parent="1" vertex="1">
          <mxGeometry x="1220" y="90" width="120" height="60" as="geometry" />
        </mxCell>
        <mxCell id="YoOTowzyrClWi79sCNQv-14" value="戰鬥" style="rounded=0;whiteSpace=wrap;html=1;" parent="1" vertex="1">
          <mxGeometry x="1220" y="170" width="120" height="60" as="geometry" />
        </mxCell>
        <mxCell id="YoOTowzyrClWi79sCNQv-15" value="逃跑" style="rounded=0;whiteSpace=wrap;html=1;" parent="1" vertex="1">
          <mxGeometry x="1220" y="250" width="120" height="60" as="geometry" />
        </mxCell>
        <mxCell id="YoOTowzyrClWi79sCNQv-36" style="edgeStyle=orthogonalEdgeStyle;rounded=0;orthogonalLoop=1;jettySize=auto;html=1;entryX=0;entryY=0.5;entryDx=0;entryDy=0;" parent="1" source="YoOTowzyrClWi79sCNQv-20" target="YoOTowzyrClWi79sCNQv-30" edge="1">
          <mxGeometry relative="1" as="geometry" />
        </mxCell>
        <mxCell id="YoOTowzyrClWi79sCNQv-20" value="角色能夠換" style="rounded=0;whiteSpace=wrap;html=1;" parent="1" vertex="1">
          <mxGeometry x="1550" y="-425" width="120" height="60" as="geometry" />
        </mxCell>
        <mxCell id="YoOTowzyrClWi79sCNQv-47" style="edgeStyle=orthogonalEdgeStyle;rounded=0;orthogonalLoop=1;jettySize=auto;html=1;" parent="1" source="YoOTowzyrClWi79sCNQv-22" target="YoOTowzyrClWi79sCNQv-41" edge="1">
          <mxGeometry relative="1" as="geometry" />
        </mxCell>
        <mxCell id="YoOTowzyrClWi79sCNQv-22" value="角色不能換" style="rounded=0;whiteSpace=wrap;html=1;" parent="1" vertex="1">
          <mxGeometry x="1550" y="-230" width="120" height="60" as="geometry" />
        </mxCell>
        <mxCell id="YoOTowzyrClWi79sCNQv-26" value="有可更換角色" style="shape=table;startSize=30;container=1;collapsible=0;childLayout=tableLayout;fixedRows=1;rowLines=0;fontStyle=0;strokeColor=default;fontSize=16;" parent="1" vertex="1">
          <mxGeometry x="1780" y="-477.5" width="180" height="160" as="geometry" />
        </mxCell>
        <mxCell id="YoOTowzyrClWi79sCNQv-27" value="" style="shape=tableRow;horizontal=0;startSize=0;swimlaneHead=0;swimlaneBody=0;top=0;left=0;bottom=0;right=0;collapsible=0;dropTarget=0;fillColor=none;points=[[0,0.5],[1,0.5]];portConstraint=eastwest;strokeColor=inherit;fontSize=16;" parent="YoOTowzyrClWi79sCNQv-26" vertex="1">
          <mxGeometry y="30" width="180" height="30" as="geometry" />
        </mxCell>
        <mxCell id="YoOTowzyrClWi79sCNQv-28" value="1" style="shape=partialRectangle;html=1;whiteSpace=wrap;connectable=0;fillColor=none;top=0;left=0;bottom=0;right=0;overflow=hidden;pointerEvents=1;strokeColor=inherit;fontSize=16;" parent="YoOTowzyrClWi79sCNQv-27" vertex="1">
          <mxGeometry width="40" height="30" as="geometry">
            <mxRectangle width="40" height="30" as="alternateBounds" />
          </mxGeometry>
        </mxCell>
        <mxCell id="YoOTowzyrClWi79sCNQv-29" value="備用角色活著" style="shape=partialRectangle;html=1;whiteSpace=wrap;connectable=0;fillColor=none;top=0;left=0;bottom=0;right=0;align=left;spacingLeft=6;overflow=hidden;strokeColor=inherit;fontSize=16;" parent="YoOTowzyrClWi79sCNQv-27" vertex="1">
          <mxGeometry x="40" width="140" height="30" as="geometry">
            <mxRectangle width="140" height="30" as="alternateBounds" />
          </mxGeometry>
        </mxCell>
        <mxCell id="YoOTowzyrClWi79sCNQv-30" value="" style="shape=tableRow;horizontal=0;startSize=0;swimlaneHead=0;swimlaneBody=0;top=0;left=0;bottom=0;right=0;collapsible=0;dropTarget=0;fillColor=none;points=[[0,0.5],[1,0.5]];portConstraint=eastwest;strokeColor=inherit;fontSize=16;" parent="YoOTowzyrClWi79sCNQv-26" vertex="1">
          <mxGeometry y="60" width="180" height="40" as="geometry" />
        </mxCell>
        <mxCell id="YoOTowzyrClWi79sCNQv-31" value="2" style="shape=partialRectangle;html=1;whiteSpace=wrap;connectable=0;fillColor=none;top=0;left=0;bottom=0;right=0;overflow=hidden;strokeColor=inherit;fontSize=16;" parent="YoOTowzyrClWi79sCNQv-30" vertex="1">
          <mxGeometry width="40" height="40" as="geometry">
            <mxRectangle width="40" height="40" as="alternateBounds" />
          </mxGeometry>
        </mxCell>
        <mxCell id="YoOTowzyrClWi79sCNQv-32" value="備用角色無特殊狀態" style="shape=partialRectangle;html=1;whiteSpace=wrap;connectable=0;fillColor=none;top=0;left=0;bottom=0;right=0;align=left;spacingLeft=6;overflow=hidden;strokeColor=inherit;fontSize=16;" parent="YoOTowzyrClWi79sCNQv-30" vertex="1">
          <mxGeometry x="40" width="140" height="40" as="geometry">
            <mxRectangle width="140" height="40" as="alternateBounds" />
          </mxGeometry>
        </mxCell>
        <mxCell id="YoOTowzyrClWi79sCNQv-33" value="" style="shape=tableRow;horizontal=0;startSize=0;swimlaneHead=0;swimlaneBody=0;top=0;left=0;bottom=0;right=0;collapsible=0;dropTarget=0;fillColor=none;points=[[0,0.5],[1,0.5]];portConstraint=eastwest;strokeColor=inherit;fontSize=16;" parent="YoOTowzyrClWi79sCNQv-26" vertex="1">
          <mxGeometry y="100" width="180" height="60" as="geometry" />
        </mxCell>
        <mxCell id="YoOTowzyrClWi79sCNQv-34" value="3" style="shape=partialRectangle;html=1;whiteSpace=wrap;connectable=0;fillColor=none;top=0;left=0;bottom=0;right=0;overflow=hidden;strokeColor=inherit;fontSize=16;" parent="YoOTowzyrClWi79sCNQv-33" vertex="1">
          <mxGeometry width="40" height="60" as="geometry">
            <mxRectangle width="40" height="60" as="alternateBounds" />
          </mxGeometry>
        </mxCell>
        <mxCell id="YoOTowzyrClWi79sCNQv-35" value="場上角色沒有受到控制" style="shape=partialRectangle;html=1;whiteSpace=wrap;connectable=0;fillColor=none;top=0;left=0;bottom=0;right=0;align=left;spacingLeft=6;overflow=hidden;strokeColor=inherit;fontSize=16;" parent="YoOTowzyrClWi79sCNQv-33" vertex="1">
          <mxGeometry x="40" width="140" height="60" as="geometry">
            <mxRectangle width="140" height="60" as="alternateBounds" />
          </mxGeometry>
        </mxCell>
        <mxCell id="YoOTowzyrClWi79sCNQv-37" value="不可更換角色" style="shape=table;startSize=30;container=1;collapsible=0;childLayout=tableLayout;fixedRows=1;rowLines=0;fontStyle=0;strokeColor=default;fontSize=16;" parent="1" vertex="1">
          <mxGeometry x="1780" y="-282.5" width="300" height="220" as="geometry" />
        </mxCell>
        <mxCell id="YoOTowzyrClWi79sCNQv-38" value="" style="shape=tableRow;horizontal=0;startSize=0;swimlaneHead=0;swimlaneBody=0;top=0;left=0;bottom=0;right=0;collapsible=0;dropTarget=0;fillColor=none;points=[[0,0.5],[1,0.5]];portConstraint=eastwest;strokeColor=inherit;fontSize=16;" parent="YoOTowzyrClWi79sCNQv-37" vertex="1">
          <mxGeometry y="30" width="300" height="30" as="geometry" />
        </mxCell>
        <mxCell id="YoOTowzyrClWi79sCNQv-39" value="1" style="shape=partialRectangle;html=1;whiteSpace=wrap;connectable=0;fillColor=none;top=0;left=0;bottom=0;right=0;overflow=hidden;pointerEvents=1;strokeColor=inherit;fontSize=16;" parent="YoOTowzyrClWi79sCNQv-38" vertex="1">
          <mxGeometry width="40" height="30" as="geometry">
            <mxRectangle width="40" height="30" as="alternateBounds" />
          </mxGeometry>
        </mxCell>
        <mxCell id="YoOTowzyrClWi79sCNQv-40" value="備用角色皆死亡" style="shape=partialRectangle;html=1;whiteSpace=wrap;connectable=0;fillColor=none;top=0;left=0;bottom=0;right=0;align=left;spacingLeft=6;overflow=hidden;strokeColor=inherit;fontSize=16;" parent="YoOTowzyrClWi79sCNQv-38" vertex="1">
          <mxGeometry x="40" width="260" height="30" as="geometry">
            <mxRectangle width="260" height="30" as="alternateBounds" />
          </mxGeometry>
        </mxCell>
        <mxCell id="YoOTowzyrClWi79sCNQv-41" value="" style="shape=tableRow;horizontal=0;startSize=0;swimlaneHead=0;swimlaneBody=0;top=0;left=0;bottom=0;right=0;collapsible=0;dropTarget=0;fillColor=none;points=[[0,0.5],[1,0.5]];portConstraint=eastwest;strokeColor=inherit;fontSize=16;" parent="YoOTowzyrClWi79sCNQv-37" vertex="1">
          <mxGeometry y="60" width="300" height="40" as="geometry" />
        </mxCell>
        <mxCell id="YoOTowzyrClWi79sCNQv-42" value="2" style="shape=partialRectangle;html=1;whiteSpace=wrap;connectable=0;fillColor=none;top=0;left=0;bottom=0;right=0;overflow=hidden;strokeColor=inherit;fontSize=16;" parent="YoOTowzyrClWi79sCNQv-41" vertex="1">
          <mxGeometry width="40" height="40" as="geometry">
            <mxRectangle width="40" height="40" as="alternateBounds" />
          </mxGeometry>
        </mxCell>
        <mxCell id="YoOTowzyrClWi79sCNQv-43" value="備用角色受到特殊狀態" style="shape=partialRectangle;html=1;whiteSpace=wrap;connectable=0;fillColor=none;top=0;left=0;bottom=0;right=0;align=left;spacingLeft=6;overflow=hidden;strokeColor=inherit;fontSize=16;" parent="YoOTowzyrClWi79sCNQv-41" vertex="1">
          <mxGeometry x="40" width="260" height="40" as="geometry">
            <mxRectangle width="260" height="40" as="alternateBounds" />
          </mxGeometry>
        </mxCell>
        <mxCell id="YoOTowzyrClWi79sCNQv-44" value="" style="shape=tableRow;horizontal=0;startSize=0;swimlaneHead=0;swimlaneBody=0;top=0;left=0;bottom=0;right=0;collapsible=0;dropTarget=0;fillColor=none;points=[[0,0.5],[1,0.5]];portConstraint=eastwest;strokeColor=inherit;fontSize=16;" parent="YoOTowzyrClWi79sCNQv-37" vertex="1">
          <mxGeometry y="100" width="300" height="60" as="geometry" />
        </mxCell>
        <mxCell id="YoOTowzyrClWi79sCNQv-45" value="3" style="shape=partialRectangle;html=1;whiteSpace=wrap;connectable=0;fillColor=none;top=0;left=0;bottom=0;right=0;overflow=hidden;strokeColor=inherit;fontSize=16;" parent="YoOTowzyrClWi79sCNQv-44" vertex="1">
          <mxGeometry width="40" height="60" as="geometry">
            <mxRectangle width="40" height="60" as="alternateBounds" />
          </mxGeometry>
        </mxCell>
        <mxCell id="YoOTowzyrClWi79sCNQv-46" value="場上角色受到控制" style="shape=partialRectangle;html=1;whiteSpace=wrap;connectable=0;fillColor=none;top=0;left=0;bottom=0;right=0;align=left;spacingLeft=6;overflow=hidden;strokeColor=inherit;fontSize=16;" parent="YoOTowzyrClWi79sCNQv-44" vertex="1">
          <mxGeometry x="40" width="260" height="60" as="geometry">
            <mxRectangle width="260" height="60" as="alternateBounds" />
          </mxGeometry>
        </mxCell>
        <mxCell id="YoOTowzyrClWi79sCNQv-48" value="" style="shape=tableRow;horizontal=0;startSize=0;swimlaneHead=0;swimlaneBody=0;top=0;left=0;bottom=0;right=0;collapsible=0;dropTarget=0;fillColor=none;points=[[0,0.5],[1,0.5]];portConstraint=eastwest;strokeColor=inherit;fontSize=16;" parent="YoOTowzyrClWi79sCNQv-37" vertex="1">
          <mxGeometry y="160" width="300" height="60" as="geometry" />
        </mxCell>
        <mxCell id="YoOTowzyrClWi79sCNQv-49" value="4" style="shape=partialRectangle;html=1;whiteSpace=wrap;connectable=0;fillColor=none;top=0;left=0;bottom=0;right=0;overflow=hidden;strokeColor=inherit;fontSize=16;" parent="YoOTowzyrClWi79sCNQv-48" vertex="1">
          <mxGeometry width="40" height="60" as="geometry">
            <mxRectangle width="40" height="60" as="alternateBounds" />
          </mxGeometry>
        </mxCell>
        <mxCell id="YoOTowzyrClWi79sCNQv-50" value="沒有備用角色" style="shape=partialRectangle;html=1;whiteSpace=wrap;connectable=0;fillColor=none;top=0;left=0;bottom=0;right=0;align=left;spacingLeft=6;overflow=hidden;strokeColor=inherit;fontSize=16;" parent="YoOTowzyrClWi79sCNQv-48" vertex="1">
          <mxGeometry x="40" width="260" height="60" as="geometry">
            <mxRectangle width="260" height="60" as="alternateBounds" />
          </mxGeometry>
        </mxCell>
        <mxCell id="KjRn88IFFN9hU_ZQH7HQ-23" style="edgeStyle=orthogonalEdgeStyle;rounded=0;orthogonalLoop=1;jettySize=auto;html=1;entryX=0;entryY=0.5;entryDx=0;entryDy=0;" edge="1" parent="1" source="KjRn88IFFN9hU_ZQH7HQ-1" target="KjRn88IFFN9hU_ZQH7HQ-22">
          <mxGeometry relative="1" as="geometry" />
        </mxCell>
        <mxCell id="KjRn88IFFN9hU_ZQH7HQ-1" value="打開道具欄" style="rounded=0;whiteSpace=wrap;html=1;" vertex="1" parent="1">
          <mxGeometry x="1780" y="130" width="120" height="60" as="geometry" />
        </mxCell>
        <mxCell id="KjRn88IFFN9hU_ZQH7HQ-4" style="edgeStyle=orthogonalEdgeStyle;rounded=0;orthogonalLoop=1;jettySize=auto;html=1;entryX=0;entryY=0.5;entryDx=0;entryDy=0;" edge="1" parent="1" source="KjRn88IFFN9hU_ZQH7HQ-2" target="KjRn88IFFN9hU_ZQH7HQ-1">
          <mxGeometry relative="1" as="geometry" />
        </mxCell>
        <mxCell id="KjRn88IFFN9hU_ZQH7HQ-2" value="可以使用道具" style="rounded=0;whiteSpace=wrap;html=1;" vertex="1" parent="1">
          <mxGeometry x="1550" y="130" width="120" height="60" as="geometry" />
        </mxCell>
        <mxCell id="KjRn88IFFN9hU_ZQH7HQ-20" style="edgeStyle=orthogonalEdgeStyle;rounded=0;orthogonalLoop=1;jettySize=auto;html=1;entryX=0;entryY=0.5;entryDx=0;entryDy=0;" edge="1" parent="1" source="KjRn88IFFN9hU_ZQH7HQ-5" target="KjRn88IFFN9hU_ZQH7HQ-7">
          <mxGeometry relative="1" as="geometry" />
        </mxCell>
        <mxCell id="KjRn88IFFN9hU_ZQH7HQ-5" value="無法使用道具" style="rounded=0;whiteSpace=wrap;html=1;" vertex="1" parent="1">
          <mxGeometry x="1550" y="-10" width="120" height="60" as="geometry" />
        </mxCell>
        <mxCell id="KjRn88IFFN9hU_ZQH7HQ-28" style="edgeStyle=orthogonalEdgeStyle;rounded=0;orthogonalLoop=1;jettySize=auto;html=1;entryX=0;entryY=0.5;entryDx=0;entryDy=0;" edge="1" parent="1" source="KjRn88IFFN9hU_ZQH7HQ-7" target="KjRn88IFFN9hU_ZQH7HQ-24">
          <mxGeometry relative="1" as="geometry">
            <Array as="points">
              <mxPoint x="2150" y="20" />
              <mxPoint x="2150" y="-152" />
            </Array>
          </mxGeometry>
        </mxCell>
        <mxCell id="KjRn88IFFN9hU_ZQH7HQ-7" value="無法使用道具" style="shape=table;startSize=30;container=1;collapsible=0;childLayout=tableLayout;fixedRows=1;rowLines=0;fontStyle=0;strokeColor=default;fontSize=16;" vertex="1" parent="1">
          <mxGeometry x="1780" y="-30" width="300" height="100" as="geometry" />
        </mxCell>
        <mxCell id="KjRn88IFFN9hU_ZQH7HQ-8" value="" style="shape=tableRow;horizontal=0;startSize=0;swimlaneHead=0;swimlaneBody=0;top=0;left=0;bottom=0;right=0;collapsible=0;dropTarget=0;fillColor=none;points=[[0,0.5],[1,0.5]];portConstraint=eastwest;strokeColor=inherit;fontSize=16;" vertex="1" parent="KjRn88IFFN9hU_ZQH7HQ-7">
          <mxGeometry y="30" width="300" height="30" as="geometry" />
        </mxCell>
        <mxCell id="KjRn88IFFN9hU_ZQH7HQ-9" value="1" style="shape=partialRectangle;html=1;whiteSpace=wrap;connectable=0;fillColor=none;top=0;left=0;bottom=0;right=0;overflow=hidden;pointerEvents=1;strokeColor=inherit;fontSize=16;" vertex="1" parent="KjRn88IFFN9hU_ZQH7HQ-8">
          <mxGeometry width="40" height="30" as="geometry">
            <mxRectangle width="40" height="30" as="alternateBounds" />
          </mxGeometry>
        </mxCell>
        <mxCell id="KjRn88IFFN9hU_ZQH7HQ-10" value="場地影響不能使用道具" style="shape=partialRectangle;html=1;whiteSpace=wrap;connectable=0;fillColor=none;top=0;left=0;bottom=0;right=0;align=left;spacingLeft=6;overflow=hidden;strokeColor=inherit;fontSize=16;" vertex="1" parent="KjRn88IFFN9hU_ZQH7HQ-8">
          <mxGeometry x="40" width="260" height="30" as="geometry">
            <mxRectangle width="260" height="30" as="alternateBounds" />
          </mxGeometry>
        </mxCell>
        <mxCell id="KjRn88IFFN9hU_ZQH7HQ-11" value="" style="shape=tableRow;horizontal=0;startSize=0;swimlaneHead=0;swimlaneBody=0;top=0;left=0;bottom=0;right=0;collapsible=0;dropTarget=0;fillColor=none;points=[[0,0.5],[1,0.5]];portConstraint=eastwest;strokeColor=inherit;fontSize=16;" vertex="1" parent="KjRn88IFFN9hU_ZQH7HQ-7">
          <mxGeometry y="60" width="300" height="40" as="geometry" />
        </mxCell>
        <mxCell id="KjRn88IFFN9hU_ZQH7HQ-12" value="2" style="shape=partialRectangle;html=1;whiteSpace=wrap;connectable=0;fillColor=none;top=0;left=0;bottom=0;right=0;overflow=hidden;strokeColor=inherit;fontSize=16;" vertex="1" parent="KjRn88IFFN9hU_ZQH7HQ-11">
          <mxGeometry width="40" height="40" as="geometry">
            <mxRectangle width="40" height="40" as="alternateBounds" />
          </mxGeometry>
        </mxCell>
        <mxCell id="KjRn88IFFN9hU_ZQH7HQ-13" value="受特殊技能影響" style="shape=partialRectangle;html=1;whiteSpace=wrap;connectable=0;fillColor=none;top=0;left=0;bottom=0;right=0;align=left;spacingLeft=6;overflow=hidden;strokeColor=inherit;fontSize=16;" vertex="1" parent="KjRn88IFFN9hU_ZQH7HQ-11">
          <mxGeometry x="40" width="260" height="40" as="geometry">
            <mxRectangle width="260" height="40" as="alternateBounds" />
          </mxGeometry>
        </mxCell>
        <mxCell id="KjRn88IFFN9hU_ZQH7HQ-30" style="edgeStyle=orthogonalEdgeStyle;rounded=0;orthogonalLoop=1;jettySize=auto;html=1;entryX=0;entryY=0.5;entryDx=0;entryDy=0;" edge="1" parent="1" source="KjRn88IFFN9hU_ZQH7HQ-22" target="KjRn88IFFN9hU_ZQH7HQ-24">
          <mxGeometry relative="1" as="geometry">
            <Array as="points">
              <mxPoint x="2150" y="160" />
              <mxPoint x="2150" y="-152" />
            </Array>
          </mxGeometry>
        </mxCell>
        <mxCell id="KjRn88IFFN9hU_ZQH7HQ-22" value="使用道具" style="rounded=0;whiteSpace=wrap;html=1;" vertex="1" parent="1">
          <mxGeometry x="1948" y="130" width="120" height="60" as="geometry" />
        </mxCell>
        <mxCell id="KjRn88IFFN9hU_ZQH7HQ-24" value="玩家回合結束" style="rounded=0;whiteSpace=wrap;html=1;" vertex="1" parent="1">
          <mxGeometry x="2330" y="-182.5" width="120" height="60" as="geometry" />
        </mxCell>
        <mxCell id="KjRn88IFFN9hU_ZQH7HQ-25" style="edgeStyle=orthogonalEdgeStyle;rounded=0;orthogonalLoop=1;jettySize=auto;html=1;entryX=0;entryY=0.5;entryDx=0;entryDy=0;" edge="1" parent="1" source="YoOTowzyrClWi79sCNQv-30" target="KjRn88IFFN9hU_ZQH7HQ-24">
          <mxGeometry relative="1" as="geometry" />
        </mxCell>
        <mxCell id="KjRn88IFFN9hU_ZQH7HQ-27" style="edgeStyle=orthogonalEdgeStyle;rounded=0;orthogonalLoop=1;jettySize=auto;html=1;entryX=0;entryY=0.5;entryDx=0;entryDy=0;" edge="1" parent="1" source="YoOTowzyrClWi79sCNQv-44" target="KjRn88IFFN9hU_ZQH7HQ-24">
          <mxGeometry relative="1" as="geometry" />
        </mxCell>
      </root>
    </mxGraphModel>
  </diagram>
</mxfile>
